<svg xmlns="http://www.w3.org/2000/svg" viewBox="0 0 160 130" width="160" height="130">
  <defs>
    <linearGradient id="brandGrad" x1="0%" y1="0%" x2="100%" y2="100%">
      <stop offset="0%" stop-color="#6C3CE1" />
      <stop offset="50%" stop-color="#8B5CF6" />
      <stop offset="100%" stop-color="#06B6D4" />
    </linearGradient>
    <linearGradient id="iconGrad" x1="0%" y1="0%" x2="100%" y2="100%">
      <stop offset="0%" stop-color="#6C3CE1" />
      <stop offset="100%" stop-color="#06B6D4" />
    </linearGradient>
    <linearGradient id="dg1" x1="0%" y1="0%" x2="100%" y2="100%">
      <stop offset="0%" stop-color="#8B5CF6" />
      <stop offset="100%" stop-color="#A78BFA" />
    </linearGradient>
    <linearGradient id="dg2" x1="0%" y1="0%" x2="100%" y2="100%">
      <stop offset="0%" stop-color="#06B6D4" />
      <stop offset="100%" stop-color="#22D3EE" />
    </linearGradient>
    <linearGradient id="dg3" x1="0%" y1="0%" x2="100%" y2="100%">
      <stop offset="0%" stop-color="#6C3CE1" />
      <stop offset="100%" stop-color="#7C3AED" />
    </linearGradient>
  </defs>

  <g transform="translate(2, 2)">
    <line x1="40" y1="28" x2="75" y2="60" stroke="url(#iconGrad)" stroke-width="3.5" stroke-linecap="round" opacity="0.45"/>
    <line x1="40" y1="92" x2="75" y2="60" stroke="url(#iconGrad)" stroke-width="3.5" stroke-linecap="round" opacity="0.45"/>
    <line x1="75" y1="60" x2="115" y2="33" stroke="url(#iconGrad)" stroke-width="3.5" stroke-linecap="round" opacity="0.45"/>
    <line x1="75" y1="60" x2="115" y2="87" stroke="url(#iconGrad)" stroke-width="3.5" stroke-linecap="round" opacity="0.45"/>
    <line x1="40" y1="28" x2="40" y2="92" stroke="url(#iconGrad)" stroke-width="2.2" stroke-linecap="round" opacity="0.25"/>
    <line x1="115" y1="33" x2="115" y2="87" stroke="url(#iconGrad)" stroke-width="2.2" stroke-linecap="round" opacity="0.25"/>

    <circle cx="75" cy="60" r="17" fill="url(#brandGrad)" />
    <circle cx="75" cy="60" r="8" fill="white" opacity="0.92"/>

    <circle cx="40" cy="28" r="12" fill="url(#dg1)" />
    <circle cx="40" cy="92" r="12" fill="url(#dg2)" />
    <circle cx="115" cy="33" r="11" fill="url(#dg3)" />
    <circle cx="115" cy="87" r="11" fill="url(#dg2)" />

    <circle cx="18" cy="58" r="5" fill="#8B5CF6" opacity="0.35"/>
    <circle cx="137" cy="60" r="5" fill="#06B6D4" opacity="0.35"/>
  </g>
</svg>